<?xml version="1.0" encoding="utf-8"?>
<!-- Generator: Adobe Illustrator 25.1.0, SVG Export Plug-In . SVG Version: 6.00 Build 0)  -->
<svg version="1.1" xmlns="http://www.w3.org/2000/svg" xmlns:xlink="http://www.w3.org/1999/xlink" x="0px" y="0px"
	 viewBox="0 0 180 40.8" style="enable-background:new 0 0 180 40.8;" xml:space="preserve">
<style type="text/css">
	.st0{fill:#00283C;}
	.st1{fill:#4A99BD;}
	.st2{fill:#C66349;}
</style>
<g id="e_1_">
	<g>
		<path class="st0" d="M47.8,17.2c-0.7-0.7-1.7-1.1-2.7-1.1c-1,0-1.6,0.4-1.6,1.1c0,0.7,0.5,1,1.4,1.1l1.7,0.3
			c1.9,0.4,3.2,1.2,3.2,3c0,2.2-1.9,3.4-4.4,3.4c-2.4,0-4.1-1.3-4.7-2.2l1.6-1.4c0.6,0.9,1.7,1.6,3.2,1.6c1.2,0,1.9-0.5,1.9-1.2
			c0-0.7-0.6-0.9-1.6-1.1l-1.4-0.3c-1.9-0.4-3.4-1.1-3.4-3.1c0-1.9,1.7-3.2,4-3.2c1.8,0,3.3,0.7,4.2,1.6L47.8,17.2z"/>
		<path class="st0" d="M56.4,22c-0.2-0.7-0.3-1.7-0.5-2.5h0c-0.2,0.7-0.3,1.7-0.5,2.5l-0.6,2.8H52l-1.8-7.3h2.3l0.6,3.2
			c0.1,0.8,0.3,1.5,0.4,2.2h0c0.2-0.7,0.3-1.4,0.5-2.3l0.8-3.1h2.4l0.8,3.2c0.2,1,0.3,1.5,0.5,2.3h0c0.2-0.7,0.2-1.2,0.4-2.3
			l0.6-3.1h2.2l-1.9,7.3H57L56.4,22z"/>
		<path class="st0" d="M65.1,16.5h-2.3v-2.2h2.3V16.5z M65.1,24.8h-2.3v-7.3h2.3V24.8z"/>
		<path class="st0" d="M71.8,19.7c-0.5-0.5-1.3-0.8-2-0.8c-0.5,0-1,0.2-1,0.5c0,0.4,0.3,0.5,1.1,0.6l1.2,0.2
			c1.2,0.2,2.3,0.7,2.3,2.1c0,1.7-1.5,2.5-3.2,2.5c-1.7,0-3.1-0.7-3.8-1.6l1.4-1.1c0.4,0.6,1.3,1.1,2.3,1.1c0.8,0,1.1-0.2,1.1-0.6
			c0-0.4-0.4-0.5-0.9-0.6l-1.2-0.2c-0.7-0.1-1.4-0.4-1.8-0.8c-0.4-0.3-0.6-0.8-0.6-1.4c0-1.7,1.7-2.4,3.1-2.4c1.4,0,2.5,0.5,3.2,1.2
			L71.8,19.7z"/>
		<path class="st0" d="M79.6,19.7c-0.5-0.5-1.3-0.8-2-0.8c-0.5,0-1,0.2-1,0.5c0,0.4,0.3,0.5,1.1,0.6l1.2,0.2
			c1.2,0.2,2.3,0.7,2.3,2.1c0,1.7-1.5,2.5-3.2,2.5c-1.7,0-3.1-0.7-3.8-1.6l1.4-1.1c0.4,0.6,1.3,1.1,2.3,1.1c0.8,0,1.1-0.2,1.1-0.6
			c0-0.4-0.4-0.5-0.9-0.6L77,21.9c-0.7-0.1-1.4-0.4-1.8-0.8c-0.4-0.3-0.6-0.8-0.6-1.4c0-1.7,1.7-2.4,3.1-2.4c1.4,0,2.5,0.5,3.2,1.2
			L79.6,19.7z"/>
		<path class="st0" d="M91.5,18.4c0.8,1.4,1.5,2.7,1.5,2.7h0c0,0-0.1-2.1-0.1-3.3v-3.5h2.3v10.5h-2.3l-2.5-4c-0.6-1-1.6-2.8-1.6-2.8
			h0c0,0,0.1,1.7,0.1,3.4v3.4h-2.3V14.3H89L91.5,18.4z"/>
		<path class="st0" d="M103.6,23c0,0.5,0.1,0.6,0.4,0.6h0.1v1.3c-0.3,0.1-0.7,0.1-1,0.1c-0.6,0-1.2-0.1-1.4-0.7h0
			c-0.3,0.4-0.9,0.7-2.1,0.7c-1.6,0-2.6-0.8-2.6-2.4c0-1.4,1.1-2,2.6-2.2l1.5-0.2c0.4-0.1,0.5-0.1,0.5-0.3v-0.1
			c0-0.6-0.3-0.9-1.1-0.9c-0.8,0-1.2,0.3-1.2,1.1l-2.1,0c0-1.7,1.3-2.6,3.4-2.6c1.9,0,3.1,0.6,3.1,2.2V23z M101.5,21.5
			c-0.2,0.1-0.3,0.1-1.1,0.3c-0.7,0.1-1.3,0.3-1.3,0.9c0,0.6,0.4,0.9,1.1,0.9c0.7,0,1.3-0.3,1.3-1.1V21.5z"/>
		<path class="st0" d="M110,24.8c-0.3,0.1-0.8,0.1-1.4,0.1c-0.9,0-1.8-0.1-2.2-0.6c-0.3-0.4-0.3-0.8-0.3-1.5V19h-1.4v-1.5h1.4V15
			l2.2-0.4v2.9h1.6V19h-1.6v3.2c0,0.4,0,0.6,0.2,0.8c0.2,0.2,0.4,0.2,0.8,0.2c0.3,0,0.5,0,0.6,0V24.8z"/>
		<path class="st0" d="M113.8,16.5h-2.3v-2.2h2.3V16.5z M113.8,24.8h-2.3v-7.3h2.3V24.8z"/>
		<path class="st0" d="M119.1,17.3c2.3,0,3.9,1.4,3.9,3.9c0,2.5-1.6,3.8-3.9,3.8c-2.3,0-3.9-1.3-3.9-3.8
			C115.3,18.7,116.8,17.3,119.1,17.3z M119.1,23.3c1,0,1.6-0.8,1.6-2.1c0-1.4-0.6-2.2-1.6-2.2c-1,0-1.6,0.8-1.6,2.2
			C117.5,22.5,118.1,23.3,119.1,23.3z"/>
		<path class="st0" d="M131.5,24.8h-2.2v-3.7c0-1.1,0-1.9-1.2-1.9c-0.9,0-1.3,0.7-1.3,1.7v3.9h-2.2v-7.3h2.2v0.9
			c0.4-0.6,1.2-1.1,2.2-1.1c0.8,0,1.5,0.2,1.9,0.7c0.5,0.5,0.6,1,0.6,2.6V24.8z"/>
		<path class="st0" d="M139.6,23c0,0.5,0.1,0.6,0.4,0.6h0.1v1.3c-0.3,0.1-0.7,0.1-1,0.1c-0.6,0-1.2-0.1-1.4-0.7h0
			c-0.3,0.4-0.9,0.7-2.1,0.7c-1.6,0-2.6-0.8-2.6-2.4c0-1.4,1.1-2,2.6-2.2l1.5-0.2c0.4-0.1,0.5-0.1,0.5-0.3v-0.1
			c0-0.6-0.3-0.9-1.1-0.9c-0.8,0-1.2,0.3-1.2,1.1l-2.1,0c0-1.7,1.3-2.6,3.4-2.6c1.9,0,3.1,0.6,3.1,2.2V23z M137.5,21.5
			c-0.2,0.1-0.3,0.1-1.1,0.3c-0.7,0.1-1.3,0.3-1.3,0.9c0,0.6,0.4,0.9,1.1,0.9c0.7,0,1.3-0.3,1.3-1.1V21.5z"/>
		<path class="st0" d="M144,24.8h-2.2V14.3h2.2V24.8z"/>
		<path class="st0" d="M47.8,32.8c-0.7-0.7-1.7-1.1-2.7-1.1c-1,0-1.6,0.4-1.6,1.1c0,0.7,0.5,1,1.4,1.1l1.7,0.3
			c1.9,0.4,3.2,1.2,3.2,3c0,2.2-1.9,3.4-4.4,3.4c-2.4,0-4.1-1.3-4.7-2.2l1.6-1.4c0.6,0.9,1.7,1.6,3.2,1.6c1.2,0,1.9-0.5,1.9-1.2
			c0-0.7-0.6-0.9-1.6-1.1L44.4,36C42.5,35.7,41,35,41,32.9c0-1.9,1.7-3.2,4-3.2c1.8,0,3.3,0.7,4.2,1.6L47.8,32.8z"/>
		<path class="st0" d="M57.9,38.6c-0.4,1-1.4,2-3.4,2c-2.3,0-3.9-1.3-3.9-3.8c0-2.5,1.6-3.9,3.9-3.9c2,0,3.1,1.1,3.4,2.3l-1.9,0.7
			c-0.2-0.8-0.7-1.2-1.5-1.2c-1,0-1.6,0.8-1.6,2.2c0,1.4,0.6,2.1,1.6,2.1c0.7,0,1.2-0.4,1.5-1.1L57.9,38.6z"/>
		<path class="st0" d="M61.4,32.1h-2.3v-2.2h2.3V32.1z M61.4,40.4h-2.3v-7.3h2.3V40.4z"/>
		<path class="st0" d="M70.2,38.8c-0.4,0.6-1.5,1.7-3.5,1.7c-2.2,0-3.8-1.4-3.8-3.9c0-2.3,1.6-3.8,3.8-3.8c2.4,0,3.6,1.7,3.6,4
			c0,0.2,0,0.3,0,0.5H65c0.1,0.8,0.7,1.5,1.8,1.5c1,0,1.6-0.6,1.8-1L70.2,38.8z M65,35.9h3.1c0-0.8-0.6-1.4-1.5-1.4
			C65.7,34.4,65.1,35.1,65,35.9z"/>
		<path class="st0" d="M78.8,40.4h-2.2v-3.7c0-1.1,0-1.9-1.2-1.9c-0.9,0-1.3,0.7-1.3,1.7v3.9h-2.2v-7.3H74V34
			c0.4-0.6,1.2-1.1,2.2-1.1c0.8,0,1.5,0.2,1.9,0.7c0.5,0.5,0.6,1,0.6,2.6V40.4z"/>
		<path class="st0" d="M87.4,38.6c-0.4,1-1.4,2-3.4,2c-2.3,0-3.9-1.3-3.9-3.8c0-2.5,1.6-3.9,3.9-3.9c2,0,3.1,1.1,3.4,2.3l-1.9,0.7
			c-0.2-0.8-0.7-1.2-1.5-1.2c-1,0-1.6,0.8-1.6,2.2c0,1.4,0.6,2.1,1.6,2.1c0.7,0,1.2-0.4,1.5-1.1L87.4,38.6z"/>
		<path class="st0" d="M95.4,38.8c-0.4,0.6-1.5,1.7-3.5,1.7c-2.2,0-3.8-1.4-3.8-3.9c0-2.3,1.6-3.8,3.8-3.8c2.4,0,3.6,1.7,3.6,4
			c0,0.2,0,0.3,0,0.5h-5.2c0.1,0.8,0.7,1.5,1.8,1.5c1,0,1.6-0.6,1.8-1L95.4,38.8z M90.3,35.9h3.1c0-0.8-0.6-1.4-1.5-1.4
			C91,34.4,90.3,35.1,90.3,35.9z"/>
		<path class="st0" d="M103.4,32V34h4.3v2.1h-4.3v4.3h-2.3V29.9h6.8v2H103.4z"/>
		<path class="st0" d="M112.2,32.9c2.3,0,3.9,1.4,3.9,3.9c0,2.5-1.6,3.8-3.9,3.8c-2.3,0-3.9-1.3-3.9-3.8
			C108.3,34.3,109.9,32.9,112.2,32.9z M112.2,38.9c1,0,1.6-0.8,1.6-2.1c0-1.4-0.6-2.2-1.6-2.2c-1,0-1.6,0.8-1.6,2.2
			C110.6,38.1,111.2,38.9,112.2,38.9z"/>
		<path class="st0" d="M117.5,33.1h2.2v3.7c0,1.1,0,1.9,1.1,1.9c0.9,0,1.3-0.7,1.3-1.7v-3.9h2.2v7.3h-2.2v-0.9
			c-0.4,0.6-1.1,1.1-2.2,1.1c-0.8,0-1.5-0.2-1.9-0.7c-0.5-0.5-0.6-1-0.6-2.6V33.1z"/>
		<path class="st0" d="M133.4,40.4h-2.2v-3.7c0-1.1,0-1.9-1.2-1.9c-0.9,0-1.3,0.7-1.3,1.7v3.9h-2.2v-7.3h2.2V34
			c0.4-0.6,1.2-1.1,2.2-1.1c0.8,0,1.5,0.2,1.9,0.7c0.5,0.5,0.6,1,0.6,2.6V40.4z"/>
		<path class="st0" d="M140.4,33.7v-3.8h2.2v10.5h-2.2v-0.7c-0.4,0.4-1.1,0.9-2.2,0.9c-2.1,0-3.4-1.5-3.4-3.8c0-2.2,1.4-3.8,3.4-3.8
			C139.3,32.9,140,33.3,140.4,33.7z M138.8,34.6c-1,0-1.7,0.8-1.7,2.1c0,1.3,0.6,2.2,1.7,2.2c1,0,1.7-0.9,1.7-2.2
			C140.5,35.5,139.8,34.6,138.8,34.6z"/>
		<path class="st0" d="M150.8,38.6c0,0.5,0.1,0.6,0.4,0.6h0.1v1.3c-0.3,0.1-0.7,0.1-1,0.1c-0.6,0-1.2-0.1-1.4-0.7h0
			c-0.3,0.4-0.9,0.7-2.1,0.7c-1.6,0-2.6-0.8-2.6-2.4c0-1.4,1.1-2,2.6-2.2l1.5-0.2c0.4-0.1,0.5-0.1,0.5-0.3v-0.1
			c0-0.6-0.3-0.9-1.1-0.9c-0.8,0-1.2,0.3-1.2,1.1l-2.1,0c0-1.7,1.3-2.6,3.4-2.6c1.9,0,3.1,0.6,3.1,2.2V38.6z M148.7,37.1
			c-0.2,0.1-0.3,0.1-1.1,0.3c-0.7,0.1-1.3,0.3-1.3,0.9c0,0.6,0.4,0.9,1.1,0.9c0.7,0,1.3-0.3,1.3-1.1V37.1z"/>
		<path class="st0" d="M157.1,40.4c-0.3,0.1-0.8,0.1-1.4,0.1c-0.9,0-1.8-0.1-2.2-0.6c-0.3-0.4-0.3-0.8-0.3-1.5v-3.8h-1.4v-1.5h1.4
			v-2.5l2.2-0.4v2.9h1.6v1.5h-1.6v3.2c0,0.4,0,0.6,0.2,0.8c0.2,0.2,0.4,0.2,0.8,0.2c0.3,0,0.5,0,0.6,0V40.4z"/>
		<path class="st0" d="M160.9,32.1h-2.3v-2.2h2.3V32.1z M160.9,40.4h-2.3v-7.3h2.3V40.4z"/>
		<path class="st0" d="M166.2,32.9c2.3,0,3.9,1.4,3.9,3.9c0,2.5-1.6,3.8-3.9,3.8c-2.3,0-3.9-1.3-3.9-3.8
			C162.3,34.3,163.9,32.9,166.2,32.9z M166.2,38.9c1,0,1.6-0.8,1.6-2.1c0-1.4-0.6-2.2-1.6-2.2c-1,0-1.6,0.8-1.6,2.2
			C164.6,38.1,165.2,38.9,166.2,38.9z"/>
		<path class="st0" d="M178.5,40.4h-2.2v-3.7c0-1.1,0-1.9-1.2-1.9c-0.9,0-1.3,0.7-1.3,1.7v3.9h-2.2v-7.3h2.2V34
			c0.4-0.6,1.2-1.1,2.2-1.1c0.8,0,1.5,0.2,1.9,0.7c0.5,0.5,0.6,1,0.6,2.6V40.4z"/>
	</g>
</g>
<g id="Bildmarke">
	<g>
		<path class="st0" d="M34.3,3H23.5c0,0.1,0,0.2,0,0.4c0,0.1,0,0.3,0,0.4h10.8c0-0.1,0-0.2,0-0.4C34.3,3.3,34.3,3.2,34.3,3z"/>
		<path class="st0" d="M3.4,34.3c0.1,0,0.3,0,0.4,0V23.5c-0.1,0-0.2,0-0.4,0c-0.1,0-0.3,0-0.4,0v10.8C3.2,34.3,3.3,34.3,3.4,34.3z"
			/>
		<path class="st0" d="M20.8,17.3V6.5c-0.1,0-0.2,0-0.4,0c-0.1,0-0.3,0-0.4,0v10.8c-0.6,0.1-1.1,0.3-1.5,0.6
			c-0.1,0.1-0.1,0.1-0.2,0.2c0,0-0.1,0.1-0.1,0.1c-0.5,0.5-0.8,1.1-0.9,1.8H6.5c0,0.1,0,0.2,0,0.4c0,0.1,0,0.3,0,0.4h10.8
			c0.2,1.5,1.4,2.7,2.9,2.8c0.1,0,0.1,0,0.2,0c0,0,0,0,0,0c0.1,0,0.2,0,0.3,0c0,0,0,0,0,0c0.7-0.1,1.3-0.4,1.8-0.8c0,0,0,0,0,0
			c0,0,0,0,0.1,0c0,0,0,0,0.1-0.1c0,0,0,0,0,0c0,0,0.1-0.1,0.1-0.1c0,0,0,0,0,0c0.5-0.6,0.8-1.3,0.8-2.1
			C23.5,18.8,22.3,17.5,20.8,17.3z"/>
		<path class="st1" d="M3.4,17.3c-1.7,0-3.1,1.4-3.1,3.1s1.4,3.1,3.1,3.1s3.1-1.4,3.1-3.1S5.1,17.3,3.4,17.3L3.4,17.3z"/>
		<path class="st1" d="M37.4,0.3c-1.7,0-3.1,1.4-3.1,3.1s1.4,3.1,3.1,3.1c1.7,0,3.1-1.4,3.1-3.1S39.1,0.3,37.4,0.3L37.4,0.3z"/>
		<path class="st2" d="M20.4,0.3c-1.7,0-3.1,1.4-3.1,3.1c0,1.7,1.4,3.1,3.1,3.1s3.1-1.4,3.1-3.1C23.5,1.7,22.1,0.3,20.4,0.3
			L20.4,0.3z"/>
		<path class="st2" d="M3.4,34.3c-1.7,0-3.1,1.4-3.1,3.1s1.4,3.1,3.1,3.1s3.1-1.4,3.1-3.1S5.1,34.3,3.4,34.3L3.4,34.3z"/>
	</g>
</g>
</svg>
